<svg xmlns="http://www.w3.org/2000/svg" viewBox="0 0 2100 900" role="img" aria-label="Abstract Swiss-style application generation workspace">
  <rect width="2100" height="900" fill="#fafaf8"/>
  <g fill="none" stroke="#0a0a0a" stroke-width="2" opacity=".22">
    <path d="M0 150H2100M0 300H2100M0 450H2100M0 600H2100M0 750H2100"/>
    <path d="M150 0V900M300 0V900M450 0V900M600 0V900M750 0V900M900 0V900M1050 0V900M1200 0V900M1350 0V900M1500 0V900M1650 0V900M1800 0V900M1950 0V900"/>
  </g>
  <rect x="180" y="170" width="520" height="280" fill="#0a0a0a"/>
  <rect x="760" y="170" width="460" height="280" fill="#f0f0ee"/>
  <rect x="1280" y="170" width="640" height="280" fill="#002FA7"/>
  <rect x="180" y="510" width="430" height="220" fill="#f0f0ee"/>
  <rect x="670" y="510" width="430" height="220" fill="#002FA7"/>
  <rect x="1160" y="510" width="760" height="220" fill="#0a0a0a"/>
  <g fill="#fafaf8" opacity=".88">
    <rect x="240" y="245" width="330" height="16"/>
    <rect x="240" y="292" width="210" height="16"/>
    <rect x="240" y="339" width="390" height="16"/>
    <rect x="1340" y="245" width="430" height="16"/>
    <rect x="1340" y="292" width="270" height="16"/>
    <rect x="1340" y="339" width="360" height="16"/>
    <rect x="1220" y="575" width="560" height="16"/>
    <rect x="1220" y="622" width="340" height="16"/>
    <rect x="1220" y="669" width="460" height="16"/>
  </g>
  <g fill="#0a0a0a" opacity=".72">
    <rect x="820" y="245" width="260" height="14"/>
    <rect x="820" y="292" width="340" height="14"/>
    <rect x="820" y="339" width="210" height="14"/>
    <rect x="240" y="575" width="260" height="14"/>
    <rect x="240" y="622" width="310" height="14"/>
    <rect x="240" y="669" width="210" height="14"/>
  </g>
  <g fill="#fafaf8" opacity=".92">
    <circle cx="820" cy="620" r="10"/>
    <circle cx="872" cy="620" r="10"/>
    <circle cx="924" cy="620" r="10"/>
    <circle cx="976" cy="620" r="10"/>
  </g>
  <g fill="#002FA7" opacity=".95">
    <rect x="370" y="800" width="120" height="18"/>
    <rect x="760" y="800" width="120" height="18"/>
    <rect x="1150" y="800" width="120" height="18"/>
    <rect x="1540" y="800" width="120" height="18"/>
  </g>
</svg>
